<svg width="380" height="94" viewBox="0 0 380 94" fill="none" xmlns="http://www.w3.org/2000/svg">
<path d="M272.396 74.2188V39.6428H278.557V46.3065H278.62C278.955 44.0433 279.919 42.2621 281.512 40.9629C283.146 39.6637 285.305 39.0141 287.987 39.0141C291.549 39.0141 294.315 40.1247 296.285 42.346C298.255 44.5253 299.24 47.6057 299.24 51.5872V54.6047H293.016V51.6501C293.016 46.8304 290.648 44.4205 285.912 44.4205C283.523 44.4205 281.7 45.112 280.443 46.4951C279.228 47.8781 278.62 49.8479 278.62 52.4044V74.2188H272.396ZM318.955 74.8474C315.393 74.8474 312.564 73.8625 310.468 71.8927C308.414 69.881 307.388 67.2616 307.388 64.0345C307.388 60.8075 308.456 58.209 310.594 56.2392C312.773 54.2694 315.623 53.2846 319.143 53.2846H329.265V50.6442C329.265 46.4113 326.918 44.2948 322.224 44.2948C320.128 44.2948 318.431 44.6929 317.132 45.4892C315.874 46.2436 315.204 47.3123 315.12 48.6954H308.959C309.169 45.8874 310.447 43.5823 312.794 41.7802C315.141 39.9361 318.284 39.0141 322.224 39.0141C326.457 39.0141 329.726 40.0199 332.031 42.0316C334.336 44.0433 335.489 46.8723 335.489 50.5185V74.2188H329.391V67.8693H329.265C328.971 70.0068 327.903 71.7041 326.059 72.9614C324.257 74.2188 321.889 74.8474 318.955 74.8474ZM320.589 69.6296C323.23 69.6296 325.325 69.0009 326.876 67.7436C328.469 66.4444 329.265 64.6842 329.265 62.4629V57.8737H319.709C317.907 57.8737 316.44 58.4186 315.309 59.5082C314.219 60.556 313.674 61.96 313.674 63.7202C313.674 65.5224 314.282 66.9683 315.497 68.0579C316.713 69.1057 318.41 69.6296 320.589 69.6296ZM348.289 74.2188L342.693 39.6428H347.974L351.369 63.2173C351.495 64.2651 351.62 65.3966 351.746 66.612C351.872 67.8274 351.956 68.8123 351.998 69.5667C352.081 68.8123 352.186 67.8274 352.312 66.612C352.438 65.3966 352.584 64.2651 352.752 63.2173L356.901 39.6428H362.81L366.96 63.2173C367.127 64.2651 367.274 65.3966 367.4 66.612C367.567 67.7855 367.693 68.7704 367.777 69.5667C367.861 68.7704 367.965 67.7855 368.091 66.612C368.217 65.3966 368.343 64.2651 368.468 63.2173L371.989 39.6428H377.018L371.172 74.2188H364.508L360.673 50.9585C360.505 49.827 360.338 48.5696 360.17 47.1866C360.044 45.8036 359.94 44.7139 359.856 43.9176C359.814 44.7139 359.688 45.8036 359.479 47.1866C359.311 48.5696 359.143 49.827 358.976 50.9585L355.015 74.2188H348.289Z" fill="#0F172A"/>
<path d="M20.5099 76.1787C13.5161 76.1787 7.54385 72.6425 7.54385 63.6842V45.689H1.02156V36.5735H7.93676V26.1221L18.5453 22.193V36.5735H27.1107V45.689H18.5453V61.091C18.5453 64.5486 20.2741 66.2774 23.9675 66.2774C25.1462 66.2774 26.2463 66.0417 27.1107 65.8059V75.3143C26.0892 75.6287 23.2602 76.1787 20.5099 76.1787ZM34.3366 75V36.5735H45.1809V42.1528C47.0668 37.9094 50.603 35.3162 55.4751 35.3162C56.2609 35.3162 57.8325 35.4733 58.304 35.5519V46.7105C57.0467 46.3962 55.7894 46.3176 54.2964 46.3176C50.1315 46.3176 46.281 49.068 45.338 52.7613V75H34.3366ZM81.4126 76.1787C70.3326 76.1787 61.2171 68.792 61.2171 55.5117C61.2171 43.4101 69.9397 35.3162 80.9411 35.3162C93.1213 35.3162 100.036 43.803 100.036 55.6689C100.036 56.6119 99.9579 58.2621 99.8793 58.8907H72.69C72.9258 64.1557 77.7978 67.0632 82.5913 67.0632C87.7777 67.0632 92.1783 65.6488 97.2076 62.3483V71.8567C93.6714 74.1356 89.1136 76.1787 81.4126 76.1787ZM72.9258 51.504H88.9565C88.7207 47.8893 86.2061 44.4317 80.9411 44.4317C76.1476 44.4317 73.1615 48.0464 72.9258 51.504ZM151.406 35.3162C158.636 35.3162 165.158 40.2668 165.158 49.3823V75H154.157V52.1327C154.157 47.9679 151.878 45.3747 148.184 45.3747C145.434 45.3747 143.234 46.9463 141.662 49.1466V49.3823V75H130.661V52.1327C130.661 47.9679 128.46 45.3747 124.767 45.3747C121.86 45.3747 119.659 47.0249 118.088 49.3823V75H107.086V36.5735H117.93V39.6382C120.052 37.2021 123.274 35.3162 128.146 35.3162C132.625 35.3162 136.79 37.2021 139.226 40.8169C141.191 38.538 145.041 35.3162 151.406 35.3162ZM192.319 76.1787C179.903 76.1787 171.416 67.2204 171.416 55.6689C171.416 44.1959 179.903 35.3162 192.319 35.3162C204.734 35.3162 213.3 44.1959 213.3 55.6689C213.3 67.2204 204.734 76.1787 192.319 76.1787ZM192.319 65.8059C197.662 65.8059 201.906 62.034 201.906 55.6689C201.906 49.4609 197.662 45.6104 192.319 45.6104C187.054 45.6104 182.81 49.4609 182.81 55.6689C182.81 62.034 187.054 65.8059 192.319 65.8059ZM220.354 75V36.5735H231.199V42.1528C233.085 37.9094 236.621 35.3162 241.493 35.3162C242.279 35.3162 243.85 35.4733 244.322 35.5519V46.7105C243.065 46.3962 241.807 46.3176 240.314 46.3176C236.149 46.3176 232.299 49.068 231.356 52.7613V75H220.354Z" fill="#0F172A"/>
</svg>
