<svg width="247" height="94" viewBox="0 0 247 94" fill="none" xmlns="http://www.w3.org/2000/svg">
<path d="M20.5099 76.1787C13.5161 76.1787 7.54385 72.6425 7.54385 63.6842V45.689H1.02156V36.5735H7.93676V26.1221L18.5453 22.193V36.5735H27.1107V45.689H18.5453V61.091C18.5453 64.5486 20.2741 66.2774 23.9675 66.2774C25.1462 66.2774 26.2463 66.0417 27.1107 65.8059V75.3143C26.0892 75.6287 23.2602 76.1787 20.5099 76.1787ZM34.3366 75V36.5735H45.1809V42.1528C47.0668 37.9094 50.603 35.3162 55.4751 35.3162C56.2609 35.3162 57.8325 35.4733 58.304 35.5519V46.7105C57.0467 46.3962 55.7894 46.3176 54.2964 46.3176C50.1315 46.3176 46.281 49.068 45.338 52.7613V75H34.3366ZM81.4126 76.1787C70.3326 76.1787 61.2171 68.792 61.2171 55.5117C61.2171 43.4101 69.9397 35.3162 80.9411 35.3162C93.1213 35.3162 100.036 43.803 100.036 55.6689C100.036 56.6119 99.9579 58.2621 99.8793 58.8907H72.69C72.9258 64.1557 77.7978 67.0632 82.5913 67.0632C87.7777 67.0632 92.1783 65.6488 97.2076 62.3483V71.8567C93.6714 74.1356 89.1136 76.1787 81.4126 76.1787ZM72.9258 51.504H88.9565C88.7207 47.8893 86.2061 44.4317 80.9411 44.4317C76.1476 44.4317 73.1615 48.0464 72.9258 51.504ZM151.406 35.3162C158.636 35.3162 165.158 40.2668 165.158 49.3823V75H154.157V52.1327C154.157 47.9679 151.878 45.3747 148.184 45.3747C145.434 45.3747 143.234 46.9463 141.662 49.1466V49.3823V75H130.661V52.1327C130.661 47.9679 128.46 45.3747 124.767 45.3747C121.86 45.3747 119.659 47.0249 118.088 49.3823V75H107.086V36.5735H117.93V39.6382C120.052 37.2021 123.274 35.3162 128.146 35.3162C132.625 35.3162 136.79 37.2021 139.226 40.8169C141.191 38.538 145.041 35.3162 151.406 35.3162ZM192.319 76.1787C179.903 76.1787 171.416 67.2204 171.416 55.6689C171.416 44.1959 179.903 35.3162 192.319 35.3162C204.734 35.3162 213.3 44.1959 213.3 55.6689C213.3 67.2204 204.734 76.1787 192.319 76.1787ZM192.319 65.8059C197.662 65.8059 201.906 62.034 201.906 55.6689C201.906 49.4609 197.662 45.6104 192.319 45.6104C187.054 45.6104 182.81 49.4609 182.81 55.6689C182.81 62.034 187.054 65.8059 192.319 65.8059ZM220.354 75V36.5735H231.199V42.1528C233.085 37.9094 236.621 35.3162 241.493 35.3162C242.279 35.3162 243.85 35.4733 244.322 35.5519V46.7105C243.065 46.3962 241.807 46.3176 240.314 46.3176C236.149 46.3176 232.299 49.068 231.356 52.7613V75H220.354Z" fill="#0F172A"/>
</svg>
